Monda-Bold.ufo
<glyph name="plus" format="1">
  <advance width="966"/>
  <unicode hex="002B"/>
  <outline>
    <contour>
      <point x="401" y="156" type="line"/>
      <point x="565" y="156" type="line"/>
      <point x="565" y="487" type="line"/>
      <point x="834" y="487" type="line"/>
      <point x="834" y="649" type="line"/>
      <point x="565" y="649" type="line"/>
      <point x="565" y="968" type="line"/>
      <point x="401" y="968" type="line"/>
      <point x="401" y="649" type="line"/>
      <point x="132" y="649" type="line"/>
      <point x="132" y="487" type="line"/>
      <point x="401" y="487" type="line"/>
    </contour>
  </outline>
</glyph>
<glyph name="period" format="1">
  <advance width="634"/>
  <unicode hex="002E"/>
  <outline>
    <contour>
      <point x="164" y="0" type="line"/>
      <point x="462" y="0" type="line"/>
      <point x="462" y="284" type="line"/>
      <point x="164" y="284" type="line"/>
    </contour>
  </outline>
</glyph>
<glyph name="six" format="1">
  <advance width="1379"/>
  <unicode hex="0036"/>
  <outline>
    <contour>
      <point x="711" y="-20" type="curve" smooth="yes"/>
      <point x="1043" y="-20"/>
      <point x="1252" y="158"/>
      <point x="1252" y="446" type="curve" smooth="yes"/>
      <point x="1252" y="804"/>
      <point x="1081" y="930"/>
      <point x="767" y="930" type="curve" smooth="yes"/>
      <point x="737" y="930"/>
      <point x="647" y="915"/>
      <point x="611" y="904" type="curve"/>
      <point x="933" y="1477" type="line"/>
      <point x="613" y="1477" type="line"/>
      <point x="323" y="965" type="line" smooth="yes"/>
      <point x="245" y="816"/>
      <point x="188" y="650"/>
      <point x="188" y="459" type="curve" smooth="yes"/>
      <point x="188" y="163"/>
      <point x="390" y="-20"/>
    </contour>
    <contour>
      <point x="725" y="199" type="curve" smooth="yes"/>
      <point x="570" y="199"/>
      <point x="472" y="299"/>
      <point x="472" y="458" type="curve" smooth="yes"/>
      <point x="472" y="629"/>
      <point x="546" y="726"/>
      <point x="721" y="726" type="curve" smooth="yes"/>
      <point x="913" y="726"/>
      <point x="979" y="623"/>
      <point x="979" y="460" type="curve" smooth="yes"/>
      <point x="979" y="300"/>
      <point x="881" y="199"/>
    </contour>
  </outline>
</glyph>
<glyph name="C" format="1">
  <advance width="1509"/>
  <unicode hex="0043"/>
  <outline>
    <contour>
      <point x="788" y="1476" type="move" name="top"/>
    </contour>
    <contour>
      <point x="765" y="0" type="move" name="bot"/>
    </contour>
    <contour>
      <point x="788" y="-26" type="curve" smooth="yes"/>
      <point x="1300" y="-26"/>
      <point x="1370" y="190"/>
      <point x="1370" y="480" type="curve" smooth="yes"/>
      <point x="1370" y="507" type="line"/>
      <point x="1079" y="507" type="line"/>
      <point x="1079" y="460" type="line" smooth="yes"/>
      <point x="1079" y="250"/>
      <point x="1014" y="207"/>
      <point x="789" y="207" type="curve" smooth="yes"/>
      <point x="567" y="207"/>
      <point x="465" y="252"/>
      <point x="465" y="454" type="curve" smooth="yes"/>
      <point x="465" y="1012" type="line" smooth="yes"/>
      <point x="465" y="1215"/>
      <point x="568" y="1268"/>
      <point x="788" y="1268" type="curve" smooth="yes"/>
      <point x="1013" y="1268"/>
      <point x="1079" y="1213"/>
      <point x="1079" y="1006" type="curve" smooth="yes"/>
      <point x="1079" y="931" type="line"/>
      <point x="1370" y="965" type="line"/>
      <point x="1370" y="983" type="line" smooth="yes"/>
      <point x="1370" y="1281"/>
      <point x="1292" y="1501"/>
      <point x="788" y="1501" type="curve" smooth="yes"/>
      <point x="259" y="1501"/>
      <point x="168" y="1275"/>
      <point x="168" y="977" type="curve" smooth="yes"/>
      <point x="168" y="484" type="line" smooth="yes"/>
      <point x="168" y="193"/>
      <point x="262" y="-26"/>
    </contour>
  </outline>
</glyph>
<glyph name="L" format="1">
  <advance width="1194"/>
  <unicode hex="004C"/>
  <outline>
    <contour>
      <point x="444" y="1476" type="move" name="top"/>
    </contour>
    <contour>
      <point x="657" y="0" type="move" name="bot"/>
    </contour>
    <contour>
      <point x="425" y="811" type="move" name="mid"/>
    </contour>
    <contour>
      <point x="212" y="0" type="line"/>
      <point x="1126" y="0" type="line"/>
      <point x="1126" y="232" type="line"/>
      <point x="509" y="232" type="line"/>
      <point x="509" y="1476" type="line"/>
      <point x="212" y="1476" type="line"/>
    </contour>
  </outline>
</glyph>
<glyph name="Q" format="1">
  <advance width="1622"/>
  <unicode hex="0051"/>
  <outline>
    <contour>
      <point x="1018" y="-534" type="line"/>
      <point x="1207" y="-426" type="line"/>
      <point x="962" y="-19" type="line"/>
      <point x="1353" y="25"/>
      <point x="1454" y="256"/>
      <point x="1454" y="517" type="curve" smooth="yes"/>
      <point x="1454" y="948" type="line" smooth="yes"/>
      <point x="1454" y="1247"/>
      <point x="1332" y="1501"/>
      <point x="822" y="1501" type="curve" smooth="yes"/>
      <point x="289" y="1501"/>
      <point x="168" y="1262"/>
      <point x="168" y="963" type="curve" smooth="yes"/>
      <point x="168" y="501" type="line" smooth="yes"/>
      <point x="168" y="234"/>
      <point x="271" y="14"/>
      <point x="696" y="-21" type="curve"/>
    </contour>
    <contour>
      <point x="822" y="207" type="curve" smooth="yes"/>
      <point x="600" y="207"/>
      <point x="466" y="265"/>
      <point x="466" y="468" type="curve" smooth="yes"/>
      <point x="466" y="1003" type="line" smooth="yes"/>
      <point x="466" y="1205"/>
      <point x="602" y="1268"/>
      <point x="822" y="1268" type="curve" smooth="yes"/>
      <point x="1044" y="1268"/>
      <point x="1156" y="1201"/>
      <point x="1156" y="1003" type="curve" smooth="yes"/>
      <point x="1156" y="468" type="line" smooth="yes"/>
      <point x="1156" y="266"/>
      <point x="1046" y="207"/>
    </contour>
  </outline>
</glyph>
<glyph name="W" format="1">
  <advance width="2014"/>
  <unicode hex="0057"/>
  <outline>
    <contour>
      <point x="996" y="1476" type="move" name="top"/>
    </contour>
    <contour>
      <point x="447" y="0" type="line"/>
      <point x="713" y="0" type="line"/>
      <point x="1003" y="1053" type="line"/>
      <point x="1319" y="0" type="line"/>
      <point x="1568" y="0" type="line"/>
      <point x="1944" y="1476" type="line"/>
      <point x="1662" y="1476" type="line"/>
      <point x="1434" y="466" type="line"/>
      <point x="1121" y="1476" type="line"/>
      <point x="872" y="1476" type="line"/>
      <point x="600" y="455" type="line"/>
      <point x="351" y="1476" type="line"/>
      <point x="70" y="1476" type="line"/>
    </contour>
  </outline>
</glyph>
<glyph name="underscore" format="1">
  <advance width="904"/>
  <unicode hex="005F"/>
  <outline>
    <contour>
      <point x="8" y="-32" type="line"/>
      <point x="891" y="-32" type="line"/>
      <point x="891" y="143" type="line"/>
      <point x="8" y="143" type="line"/>
    </contour>
  </outline>
</glyph>
<glyph name="l" format="1">
  <advance width="734"/>
  <unicode hex="006C"/>
  <outline>
    <contour>
      <point x="335" y="1513" type="move" name="top"/>
    </contour>
    <contour>
      <point x="325" y="1074" type="move" name="caron.alt"/>
    </contour>
    <contour>
      <point x="472" y="0" type="move" name="bot"/>
    </contour>
    <contour>
      <point x="533" y="-12" type="curve" smooth="yes"/>
      <point x="647" y="-12" type="line"/>
      <point x="668" y="190" type="line"/>
      <point x="634" y="190" type="line" smooth="yes"/>
      <point x="488" y="190"/>
      <point x="442" y="239"/>
      <point x="442" y="357" type="curve" smooth="yes"/>
      <point x="442" y="1515" type="line"/>
      <point x="170" y="1515" type="line"/>
      <point x="170" y="353" type="line" smooth="yes"/>
      <point x="170" y="83"/>
      <point x="294" y="-12"/>
    </contour>
  </outline>
</glyph>
<glyph name="bar" format="1">
  <advance width="768"/>
  <unicode hex="007C"/>
  <outline>
    <contour>
      <point x="262" y="-126" type="line"/>
      <point x="506" y="-126" type="line"/>
      <point x="506" y="1608" type="line"/>
      <point x="262" y="1608" type="line"/>
    </contour>
  </outline>
</glyph>
<glyph name="yen" format="1">
  <advance width="1304"/>
  <unicode hex="00A5"/>
  <outline>
    <contour>
      <point x="1020" y="533" type="line"/>
      <point x="1020" y="667" type="line"/>
      <point x="278" y="667" type="line"/>
      <point x="278" y="533" type="line"/>
    </contour>
    <contour>
      <point x="1020" y="231" type="line"/>
      <point x="1020" y="365" type="line"/>
      <point x="278" y="365" type="line"/>
      <point x="278" y="231" type="line"/>
    </contour>
    <component base="Y"/>
  </outline>
</glyph>
<glyph name="logicalnot" format="1">
  <advance width="1024"/>
  <unicode hex="00AC"/>
  <outline>
    <contour>
      <point x="705" y="226" type="line"/>
      <point x="853" y="226" type="line"/>
      <point x="853" y="757" type="line"/>
      <point x="129" y="757" type="line"/>
      <point x="129" y="587" type="line"/>
      <point x="705" y="587" type="line"/>
    </contour>
  </outline>
</glyph>
<glyph name="threesuperior" format="1">
  <advance width="927"/>
  <unicode hex="00B3"/>
  <outline>
    <contour>
      <point x="468" y="608" type="curve" smooth="yes"/>
      <point x="672" y="607"/>
      <point x="805" y="688"/>
      <point x="805" y="874" type="curve" smooth="yes"/>
      <point x="805" y="997"/>
      <point x="755" y="1073"/>
      <point x="637" y="1104" type="curve"/>
      <point x="752" y="1126"/>
      <point x="797" y="1223"/>
      <point x="792" y="1334" type="curve" smooth="yes"/>
      <point x="784" y="1513"/>
      <point x="648" y="1582"/>
      <point x="466" y="1582" type="curve" smooth="yes"/>
      <point x="258" y="1582"/>
      <point x="146" y="1485"/>
      <point x="145" y="1276" type="curve"/>
      <point x="334" y="1276" type="line"/>
      <point x="334" y="1386"/>
      <point x="363" y="1432"/>
      <point x="466" y="1432" type="curve" smooth="yes"/>
      <point x="572" y="1432"/>
      <point x="598" y="1378"/>
      <point x="598" y="1310" type="curve" smooth="yes"/>
      <point x="598" y="1212"/>
      <point x="563" y="1174"/>
      <point x="388" y="1174" type="curve"/>
      <point x="388" y="1034" type="line"/>
      <point x="563" y="1034"/>
      <point x="605" y="994"/>
      <point x="605" y="879" type="curve" smooth="yes"/>
      <point x="605" y="798"/>
      <point x="562" y="760"/>
      <point x="466" y="760" type="curve" smooth="yes"/>
      <point x="366" y="760"/>
      <point x="333" y="807"/>
      <point x="330" y="918" type="curve"/>
      <point x="140" y="918" type="line"/>
      <point x="143" y="708"/>
      <point x="266" y="609"/>
    </contour>
  </outline>
</glyph>
<glyph name="periodcentered" format="1">
  <advance width="512"/>
  <unicode hex="00B7"/>
  <outline>
    <contour>
      <point x="1" y="902" type="move" name="_mid"/>
    </contour>
    <contour>
      <point x="264" y="780" type="line"/>
      <point x="512" y="780" type="line"/>
      <point x="512" y="1025" type="line"/>
      <point x="264" y="1025" type="line"/>
    </contour>
  </outline>
</glyph>
<glyph name="divide" format="1">
  <advance width="1004"/>
  <unicode hex="00F7"/>
  <outline>
    <contour>
      <point x="389" y="94" type="line"/>
      <point x="617" y="94" type="line"/>
      <point x="617" y="323" type="line"/>
      <point x="389" y="323" type="line"/>
    </contour>
    <contour>
      <point x="112" y="479" type="line"/>
      <point x="892" y="479" type="line"/>
      <point x="892" y="642" type="line"/>
      <point x="112" y="642" type="line"/>
    </contour>
    <contour>
      <point x="389" y="792" type="line"/>
      <point x="617" y="792" type="line"/>
      <point x="617" y="1021" type="line"/>
      <point x="389" y="1021" type="line"/>
    </contour>
  </outline>
</glyph>
<glyph name="hbar" format="1">
  <advance width="1254"/>
  <unicode hex="0127"/>
  <outline>
    <contour>
      <point x="5" y="1221" type="line"/>
      <point x="735" y="1221" type="line"/>
      <point x="735" y="1364" type="line"/>
      <point x="5" y="1364" type="line"/>
    </contour>
    <component base="h"/>
  </outline>
</glyph>
<glyph name="kgreenlandic" format="1">
  <advance width="1213"/>
  <unicode hex="0138"/>
  <outline>
    <contour>
      <point x="171" y="0" type="line"/>
      <point x="444" y="0" type="line"/>
      <point x="444" y="385" type="line"/>
      <point x="540" y="483" type="line"/>
      <point x="864" y="0" type="line"/>
      <point x="1190" y="0" type="line"/>
      <point x="771" y="605" type="line"/>
      <point x="1169" y="1074" type="line"/>
      <point x="845" y="1074" type="line"/>
      <point x="793" y="1018"/>
      <point x="496" y="657"/>
      <point x="444" y="602" type="curve"/>
      <point x="444" y="1074" type="line"/>
      <point x="171" y="1074" type="line"/>
    </contour>
  </outline>
</glyph>
<glyph name="quotedblleft" format="1">
  <advance width="1310"/>
  <unicode hex="201C"/>
  <outline>
    <contour>
      <point x="452" y="1515" type="line"/>
      <point x="390" y="1459"/>
      <point x="256" y="1274"/>
      <point x="256" y="1073" type="curve" smooth="yes"/>
      <point x="256" y="850" type="line"/>
      <point x="578" y="850" type="line"/>
      <point x="578" y="1126" type="line"/>
      <point x="413" y="1126" type="line"/>
      <point x="413" y="1264"/>
      <point x="508" y="1411"/>
      <point x="559" y="1469" type="curve"/>
    </contour>
    <contour>
      <point x="928" y="1515" type="line"/>
      <point x="866" y="1459"/>
      <point x="732" y="1274"/>
      <point x="732" y="1073" type="curve" smooth="yes"/>
      <point x="732" y="850" type="line"/>
      <point x="1054" y="850" type="line"/>
      <point x="1054" y="1126" type="line"/>
      <point x="889" y="1126" type="line"/>
      <point x="889" y="1264"/>
      <point x="984" y="1411"/>
      <point x="1035" y="1469" type="curve"/>
    </contour>
  </outline>
</glyph>
<glyph name="foursuperior" format="1">
  <advance width="1116"/>
  <unicode hex="2074"/>
  <outline>
    <contour>
      <point x="620" y="616" type="line"/>
      <point x="775" y="616" type="line"/>
      <point x="775" y="813" type="line"/>
      <point x="920" y="813" type="line"/>
      <point x="920" y="973" type="line"/>
      <point x="775" y="973" type="line"/>
      <point x="775" y="1183" type="line"/>
      <point x="620" y="1183" type="line"/>
      <point x="620" y="973" type="line"/>
      <point x="413" y="973" type="line"/>
      <point x="646" y="1566" type="line"/>
      <point x="435" y="1566" type="line"/>
      <point x="180" y="975" type="line"/>
      <point x="180" y="813" type="line"/>
      <point x="620" y="813" type="line"/>
    </contour>
  </outline>
</glyph>
<glyph name="trademark" format="1">
  <advance width="1843"/>
  <unicode hex="2122"/>
  <outline>
    <contour>
      <point x="825" y="766" type="line"/>
      <point x="990" y="766" type="line"/>
      <point x="990" y="1239" type="line"/>
      <point x="1149" y="931" type="line"/>
      <point x="1310" y="931" type="line"/>
      <point x="1462" y="1239" type="line"/>
      <point x="1462" y="766" type="line"/>
      <point x="1629" y="766" type="line"/>
      <point x="1629" y="1446" type="line"/>
      <point x="1413" y="1446" type="line"/>
      <point x="1227" y="1103" type="line"/>
      <point x="1043" y="1446" type="line"/>
      <point x="825" y="1446" type="line"/>
    </contour>
    <contour>
      <point x="315" y="766" type="line"/>
      <point x="510" y="766" type="line"/>
      <point x="510" y="1302" type="line"/>
      <point x="692" y="1302" type="line"/>
      <point x="692" y="1446" type="line"/>
      <point x="133" y="1446" type="line"/>
      <point x="133" y="1302" type="line"/>
      <point x="315" y="1302" type="line"/>
    </contour>
  </outline>
</glyph>
<glyph name="bulletoperator" format="1">
  <advance width="459"/>
  <unicode hex="2219"/>
  <outline>
    <contour>
      <point x="117" y="1251" type="line"/>
      <point x="365" y="1251" type="line"/>
      <point x="365" y="1498" type="line"/>
      <point x="117" y="1498" type="line"/>
    </contour>
  </outline>
</glyph>
<glyph name=".notdef" format="1">
  <advance width="1024"/>
  <outline>
    <contour>
      <point x="204" y="102" type="line"/>
      <point x="204" y="799" type="line"/>
      <point x="820" y="799" type="line"/>
      <point x="820" y="102" type="line"/>
    </contour>
    <contour>
      <point x="102" y="0" type="line"/>
      <point x="922" y="0" type="line"/>
      <point x="922" y="901" type="line"/>
      <point x="102" y="901" type="line"/>
    </contour>
  </outline>
</glyph>
